<svg width="20" height="20" viewBox="0 0 20 20" fill="none" xmlns="http://www.w3.org/2000/svg">
<path opacity="0.3" fill-rule="evenodd" clip-rule="evenodd" d="M10.0003 18.3334C14.6027 18.3334 18.3337 14.6025 18.3337 10.0001C18.3337 5.39771 14.6027 1.66675 10.0003 1.66675C5.39795 1.66675 1.66699 5.39771 1.66699 10.0001C1.66699 14.6025 5.39795 18.3334 10.0003 18.3334Z" fill="white"/>
<path fill-rule="evenodd" clip-rule="evenodd" d="M10.8333 5.83333C10.8333 5.3731 10.4602 5 10 5C9.53976 5 9.16667 5.3731 9.16667 5.83333V9.16667H5.83333C5.3731 9.16667 5 9.53976 5 10C5 10.4602 5.3731 10.8333 5.83333 10.8333H9.16667V14.1667C9.16667 14.6269 9.53976 15 10 15C10.4602 15 10.8333 14.6269 10.8333 14.1667V10.8333H14.1667C14.6269 10.8333 15 10.4602 15 10C15 9.53976 14.6269 9.16667 14.1667 9.16667H10.8333V5.83333Z" fill="white"/>
</svg>
