<svg width="159" height="158" viewBox="0 0 159 158" fill="none" xmlns="http://www.w3.org/2000/svg">
<circle cx="79.4998" cy="78.6052" r="78.6052" fill="#23A26D" fill-opacity="0.12"/>
<path d="M78.0971 41.1741C57.4726 41.1741 40.666 57.9806 40.666 78.6051C40.666 99.2296 57.4726 116.036 78.0971 116.036C98.7216 116.036 115.528 99.2296 115.528 78.6051C115.528 57.9806 98.7216 41.1741 78.0971 41.1741ZM95.9891 69.996L74.7657 91.2194C74.2417 91.7434 73.5305 92.0429 72.7819 92.0429C72.0332 92.0429 71.3221 91.7434 70.798 91.2194L60.205 80.6264C59.1195 79.5409 59.1195 77.7442 60.205 76.6587C61.2905 75.5732 63.0872 75.5732 64.1727 76.6587L72.7819 85.2679L92.0214 66.0283C93.1069 64.9428 94.9036 64.9428 95.9891 66.0283C97.0746 67.1138 97.0746 68.8731 95.9891 69.996Z" fill="#23A26D"/>
</svg>
